<?xml version="1.0" encoding="UTF-8"?><svg id="a" xmlns="http://www.w3.org/2000/svg" viewBox="0 0 841.89 595.28"><defs><style>.b{fill:#fa3c4b;}.c{fill:#1e2dbe;}.d{fill:#230050;}</style></defs><circle class="b" cx="501.93" cy="168.43" r="125.91"/><rect class="d" x="502.16" y="241.05" width="36.09" height="249.36"/><rect class="d" x="448.02" y="313.78" width="36.09" height="176.63"/><rect class="d" x="556.28" y="313.78" width="36.09" height="176.63"/><rect class="d" x="393.88" y="365.73" width="36.09" height="124.68"/><g><circle class="c" cx="285.56" cy="127.94" r="54.13"/><polygon class="c" points="466.06 189.1 393.87 230.67 339.74 199.5 339.74 199.5 267.56 199.5 267.55 199.5 231.46 199.5 231.46 199.5 177.33 230.67 177.33 293.01 177.33 334.57 213.42 334.57 213.42 293.01 213.42 293.01 213.42 293.01 213.42 251.45 231.46 241.06 231.46 552.76 267.57 552.75 285.62 334.56 303.66 552.75 339.74 552.76 339.74 241.06 393.88 272.22 466.06 230.66 466.06 189.1"/></g><g><rect class="b" x="574.34" y="531.98" width="90.23" height="20.78"/><rect class="b" x="574.34" y="500.79" width="90.23" height="20.78"/><rect class="b" x="574.34" y="469.64" width="90.23" height="20.78"/><rect class="b" x="574.34" y="438.47" width="90.23" height="20.78"/></g><path class="c" d="M502.15,42.53v125.8l108.9-62.7c-21.72-37.65-62.33-63.02-108.9-63.1Z"/><path class="d" d="M611.07,231.19c10.65-18.48,16.77-39.9,16.77-62.76s-6.15-44.37-16.84-62.87l-108.86,62.77,108.92,62.86Z"/></svg>